# xmcd
#
# Track frame offsets:
#	150
#	10233
#	25944
#	40020
#	61831
#	78758
#	101870
#	116500
#	134393
#	146732
#	169907
#
# Disc length: 2316 seconds
#
# Revision: 1
# Processed by: cddbd v1.5.2PL0 Copyright (c) Steve Scherf et al.
# Submitted via: audiograbber 1.83.01
#
DISCID=8c090a0b
DTITLE=Ernie Haase - Signature Sound
DYEAR=2005
DGENRE=Gospel
TTITLE0=Shout, Brother, Shout
TTITLE1=Trying to get a glimpse
TTITLE2=Godspeed
TTITLE3=Then came the morning
TTITLE4=Do you want to be forgiven
TTITLE5=This old place
TTITLE6=If this is what God wants
TTITLE7=Pray for me
TTITLE8=Goodbye Egypt (Hallo Canaan land)
TTITLE9=Forgiven again
TTITLE10=Godspeed (Reprise)
EXTD=Produced by Gaither Music Group
EXTT0=
EXTT1=
EXTT2=
EXTT3=
EXTT4=
EXTT5=
EXTT6=
EXTT7=
EXTT8=
EXTT9=
EXTT10=
PLAYORDER=
